<svg width="203" height="190" viewBox="0 0 203 190" fill="none" xmlns="http://www.w3.org/2000/svg">
<rect y="-13" width="203" height="203" fill="#003463"/>
<g clip-path="url(#clip0)">
<path fill-rule="evenodd" clip-rule="evenodd" d="M48.4908 91.8487H49.8546C47.7783 91.8487 45.9108 91.4367 44.2521 90.6063C42.5997 89.7758 41.2053 88.6715 40.0688 87.2899C38.9324 85.9138 38.06 84.2874 37.4396 82.4174C36.8254 80.5473 36.5182 78.5381 36.5182 76.3886C36.5182 74.2403 36.9052 72.2311 37.6854 70.361C38.4656 68.4909 39.6327 66.8646 41.1869 65.482C42.7471 64.1004 44.7067 63.0144 47.078 62.2185C49.4492 61.4172 52.1888 61.0224 55.3034 61.0224H61.2436C58.8417 62.2476 56.9067 64.2395 55.4509 66.9983C53.9888 69.7624 53.2579 72.8933 53.2579 76.3886C53.2579 79.8851 53.9888 82.9976 55.4509 85.7272C56.9067 88.4569 58.8417 90.5017 61.2436 91.8487C58.1906 93.2593 55.6597 95.6643 53.651 99.0734C51.636 102.476 50.6286 106.42 50.6286 110.898C50.6286 113.104 50.8928 115.206 51.4088 117.198C51.9309 119.197 52.6619 121.019 53.6018 122.675C54.5417 124.33 55.6597 125.787 56.9559 127.048C58.2582 128.302 59.6834 129.301 61.2436 130.039H53.1595C49.0069 130.039 45.5853 129.423 42.8946 128.198C40.1978 126.973 38.06 125.422 36.4691 123.552C34.878 121.682 33.76 119.609 33.1088 117.338C32.4639 115.067 32.1383 112.924 32.1383 110.898C32.1383 108.812 32.5437 106.652 33.3546 104.411C34.1654 102.169 35.3019 100.113 36.7577 98.243C38.2197 96.3729 39.9706 94.8393 42.0161 93.6433C44.0618 92.4472 46.2855 91.8487 48.6813 91.8487H48.4908Z" fill="white"/>
<path fill-rule="evenodd" clip-rule="evenodd" d="M152.471 130.039H170.089V61.0224H152.471V130.039ZM124.341 130.039L133.488 107.494L108.278 61.0224H86.9616L124.341 130.039ZM94.8432 117.617C96.1449 119.58 97.8161 121.682 99.8558 123.917C101.901 126.159 104.384 128.198 107.307 130.039H74.8911C77.8081 128.198 80.2904 126.159 82.3358 123.917C84.3812 121.682 86.0524 119.58 87.3484 117.617C88.9089 115.346 90.1741 113.046 91.1449 110.711C92.0541 113.046 93.2884 115.346 94.8432 117.617Z" fill="white"/>
</g>
<defs>
<clipPath id="clip0">
<rect width="138.04" height="69.02" fill="white" transform="translate(32.0526 61.0191)"/>
</clipPath>
</defs>
</svg>
