<svg height="136" viewBox="0 0 136 136" width="136" xmlns="http://www.w3.org/2000/svg"><g fill="none" fill-rule="evenodd"><path d="m1.65 1.65h132v132h-132z" stroke="#fff" stroke-width="3.3"/><path d="m31.2216 60.5968v-34.9536c0-.528.4224-1.0032 1.0032-1.0032h11.8272c6.3888 0 10.9824 4.224 10.9824 9.768 0 4.0656-3.0096 6.9696-5.4912 8.3952 2.7984 1.1616 6.6 3.7488 6.6 8.6064 0 5.9136-4.8576 10.1904-11.5104 10.1904h-12.408c-.5808 0-1.0032-.4752-1.0032-1.0032zm5.3856-19.9056h7.128c3.3792 0 5.4384-2.4816 5.4384-5.6496 0-3.2208-2.0592-5.4384-5.4384-5.4384h-7.128zm-.0528 16.0512h8.0256c3.2208 0 5.7024-2.4816 5.7024-5.7552 0-3.2208-3.0624-5.544-6.4944-5.544h-7.2336z" fill="#fff"/><path d="m76.7712 98.5072c0-6.336 5.4384-9.4512 7.3392-10.56v-.1056l-1.2144-1.32c-2.0592-2.1648-3.696-4.488-3.6432-7.656 0-4.0128 3.168-8.5536 9.6624-8.5536 5.808 0 9.4512 3.8016 9.4512 8.3952 0 5.0688-5.0688 8.448-7.128 9.8736l7.392 7.392c1.1616-2.2176 1.848-4.9104 2.0064-7.6032.0528-1.1616.4752-1.4784 1.4784-1.2672l2.1648.4224c1.2144.2112.9504 1.1616.8976 1.6368-.4224 3.96-1.9008 7.7616-3.2208 10.1376l4.9104 4.752c.6336.6336 1.1088 1.2144-.1056 2.4288l-1.3728 1.3728c-.6336.5808-1.4784.6864-2.2704-.1584l-4.1712-4.224c-1.9008 2.1648-5.7024 4.8576-11.5104 4.8576-6.6528 0-10.6656-4.5408-10.6656-9.8208zm11.4048-13.0416c1.584-.9504 5.4912-3.0096 5.4912-6.5472 0-2.2704-1.848-4.5408-5.016-4.5408-2.9568 0-4.6992 2.0592-4.6992 4.5408-.0528 2.0592 1.2672 3.5904 3.0624 5.3856zm-6.3888 12.7248c0 3.3264 2.6928 5.7024 6.072 5.7024 3.8016 0 6.3888-2.0064 7.92-3.8016l-8.8176-9.2928c-1.6368 1.0032-5.1744 3.2208-5.1744 7.392z" fill="#fff"/><path d="m31.35 105.6 72.6-77.55" stroke="#ff3233" stroke-linecap="square" stroke-width="3.3"/></g></svg>