<?xml version="1.0" encoding="UTF-8"?>
<svg width="136px" height="136px" viewBox="0 0 136 136" version="1.1" xmlns="http://www.w3.org/2000/svg" xmlns:xlink="http://www.w3.org/1999/xlink">
    <!-- Generator: Sketch 54.1 (76490) - https://sketchapp.com -->
    <title>logo (7)</title>
    <desc>Created with Sketch.</desc>
    <g id="Page-1" stroke="none" stroke-width="1" fill="none" fill-rule="evenodd">
        <g id="logo-(7)" transform="translate(1.000000, 1.000000)">
            <polygon id="Path" stroke="#FFFFFF" stroke-width="3.3" points="0.65 0.65 132.65 0.65 132.65 132.65 0.65 132.65"></polygon>
            <path d="M22.495,60 L22.495,57.78 C24.5350102,57.78 25.9349962,57.4200036 26.695,56.7 C27.4550038,55.9799964 27.835,54.920007 27.835,53.52 L27.835,24.48 C27.835,23.079993 27.4550038,22.0200036 26.695,21.3 C25.9349962,20.5799964 24.5350102,20.22 22.495,20.22 L22.495,18 L38.995,18 C41.9150146,18 44.2849909,18.3499965 46.105,19.05 C47.9250091,19.7500035 49.3449949,20.6199948 50.365,21.66 C51.3850051,22.7000052 52.0649983,23.8099941 52.405,24.99 C52.7450017,26.1700059 52.915,27.2399952 52.915,28.2 C52.915,29.1200046 52.7550016,30.0699951 52.435,31.05 C52.1149984,32.0300049 51.6150034,32.9399958 50.935,33.78 C50.2549966,34.6200042 49.3550056,35.3699967 48.235,36.03 C47.1149944,36.6900033 45.7750078,37.1799984 44.215,37.5 L44.215,37.86 C47.4550162,38.3800026 50.0549902,39.5299911 52.015,41.31 C53.9750098,43.0900089 54.955,45.5599842 54.955,48.72 C54.955,50.3600082 54.6850027,51.8599932 54.145,53.22 C53.6049973,54.5800068 52.7650057,55.7699949 51.625,56.79 C50.4849943,57.8100051 49.0450087,58.5999972 47.305,59.16 C45.5649913,59.7200028 43.495012,60 41.095,60 L22.495,60 Z M33.475,39.12 L33.475,53.52 C33.475,54.920007 33.8349964,55.9799964 34.555,56.7 C35.2750036,57.4200036 36.63499,57.78 38.635,57.78 C40.9950118,57.78 42.8849929,57.4900029 44.305,56.91 C45.7250071,56.3299971 46.8049963,55.5900045 47.545,54.69 C48.2850037,53.7899955 48.7749988,52.7700057 49.015,51.63 C49.2550012,50.4899943 49.375,49.3800054 49.375,48.3 C49.375,47.1799944 49.1650021,46.0700055 48.745,44.97 C48.3249979,43.8699945 47.6350048,42.8900043 46.675,42.03 C45.7149952,41.1699957 44.4550078,40.4700027 42.895,39.93 C41.3349922,39.3899973 39.4350112,39.12 37.195,39.12 L33.475,39.12 Z M33.475,36.72 C33.7550014,36.7600002 34.0749982,36.78 34.435,36.78 C34.7950018,36.78 35.1149986,36.78 35.395,36.78 C37.595011,36.78 39.4449925,36.5500023 40.945,36.09 C42.4450075,35.6299977 43.6649953,35.0100039 44.605,34.23 C45.5450047,33.4499961 46.214998,32.5400052 46.615,31.5 C47.015002,30.4599948 47.215,29.3600058 47.215,28.2 C47.215,27.4399962 47.1250009,26.6000046 46.945,25.68 C46.7649991,24.7599954 46.375003,23.900004 45.775,23.1 C45.174997,22.299996 44.2950058,21.6200028 43.135,21.06 C41.9749942,20.4999972 40.4150098,20.22 38.455,20.22 C36.4949902,20.22 35.1750034,20.5899963 34.495,21.33 C33.8149966,22.0700037 33.475,23.1199932 33.475,24.48 L33.475,36.72 Z" id="B" fill="#FFFFFF" fill-rule="nonzero"></path>
            <path d="M20.9849999,121 L20.9849999,118.72 L45.4049999,81.58 L45.2849999,80.98 L31.6649999,81.58 C30.5049941,81.6600004 29.4850043,81.9799972 28.6049999,82.54 C27.7249955,83.1000028 26.9850029,83.8399954 26.385,84.76 C25.784997,85.6800046 25.3250015,86.7599938 25.0049999,88 C24.6849984,89.2400062 24.5249999,90.5399932 24.5249999,91.9 L23.8049999,92.38 L22.3649999,91.96 L23.0249999,79 L52.545,79 L52.545,81.28 L28.1249999,118.54 L28.3049999,119.02 L44.1449999,118.36 C46.5050118,118.28 48.3249935,117.27001 49.6049999,115.33 C50.8850063,113.38999 51.5249999,110.780016 51.5249999,107.5 L52.2449999,106.96 L53.8649999,107.5 L53.265,121 L20.9849999,121 Z" id="Z" fill="#FFFFFF" fill-rule="nonzero"></path>
            <path d="M123.205,100.12 C123.205,103.400016 122.665005,106.379987 121.585,109.06 C120.504995,111.740013 119.00501,114.02999 117.085,115.93 C115.16499,117.83001 112.865013,119.299995 110.185,120.34 C107.504987,121.380005 104.565016,121.9 101.365,121.9 C98.1649839,121.9 95.2350133,121.380005 92.575,120.34 C89.9149867,119.299995 87.6250096,117.83001 85.705,115.93 C83.7849904,114.02999 82.2950053,111.740013 81.235,109.06 C80.1749947,106.379987 79.6449999,103.400016 79.6449999,100.12 C79.6449999,96.7999834 80.1749947,93.7900135 81.235,91.09 C82.2950053,88.3899865 83.7849904,86.0800096 85.705,84.16 C87.6250096,82.2399904 89.9149867,80.7500053 92.575,79.69 C95.2350133,78.6299947 98.1649839,78.1 101.365,78.1 C104.565016,78.1 107.504987,78.6299947 110.185,79.69 C112.865013,80.7500053 115.16499,82.2399904 117.085,84.16 C119.00501,86.0800096 120.504995,88.3899865 121.585,91.09 C122.665005,93.7900135 123.205,96.7999834 123.205,100.12 Z M101.425,119.32 C103.905012,119.32 106.09499,118.830005 107.995,117.85 C109.895009,116.869995 111.494993,115.520009 112.795,113.8 C114.095006,112.079991 115.074997,110.050012 115.735,107.71 C116.395003,105.369988 116.725,102.820014 116.725,100.06 C116.725,97.2999862 116.395003,94.7400118 115.735,92.38 C115.074997,90.0199882 114.095006,87.9700087 112.795,86.23 C111.494993,84.4899913 109.895009,83.1300049 107.995,82.15 C106.09499,81.1699951 103.905012,80.68 101.425,80.68 C98.9449876,80.68 96.7550095,81.179995 94.855,82.18 C92.9549904,83.180005 91.3550065,84.5499913 90.0549999,86.29 C88.7549935,88.0300087 87.7750032,90.0799882 87.1149999,92.44 C86.4549966,94.8000118 86.125,97.3599862 86.125,100.12 C86.125,102.840014 86.4549966,105.369988 87.1149999,107.71 C87.7750032,110.050012 88.7549935,112.079991 90.0549999,113.8 C91.3550065,115.520009 92.9549904,116.869995 94.855,117.85 C96.7550095,118.830005 98.9449876,119.32 101.425,119.32 Z" id="O" fill="#FFFFFF" fill-rule="nonzero"></path>
        </g>
    </g>
</svg>